<svg xmlns="http://www.w3.org/2000/svg" viewBox="0 0 512 512">
  <!-- Background pill -->
  <rect width="512" height="512" rx="112" fill="#1D9E75"/>
  <!-- Subtle inner glow ring -->
  <rect x="16" y="16" width="480" height="480" rx="100" fill="none" stroke="rgba(255,255,255,0.12)" stroke-width="2"/>
  <!-- Vault body -->
  <rect x="120" y="148" width="272" height="220" rx="22" fill="none" stroke="white" stroke-width="22" stroke-linejoin="round"/>
  <!-- Vault door circle -->
  <circle cx="256" cy="258" r="60" fill="none" stroke="white" stroke-width="18"/>
  <!-- Vault handle -->
  <circle cx="256" cy="258" r="22" fill="white"/>
  <!-- Vault handle bar -->
  <line x1="256" y1="198" x2="256" y2="168" stroke="white" stroke-width="18" stroke-linecap="round"/>
  <!-- Coupon scissor notch left -->
  <path d="M120 238 L86 224 L86 252 Z" fill="white"/>
  <!-- Coupon scissor notch right -->
  <path d="M392 238 L426 224 L426 252 Z" fill="white"/>
  <!-- Top hinge bolts -->
  <circle cx="162" cy="172" r="10" fill="white"/>
  <circle cx="350" cy="172" r="10" fill="white"/>
  <!-- Bottom hinge bolts -->
  <circle cx="162" cy="344" r="10" fill="white"/>
  <circle cx="350" cy="344" r="10" fill="white"/>
  <!-- Sparkle top-right -->
  <path d="M390 96 L396 112 L412 118 L396 124 L390 140 L384 124 L368 118 L384 112 Z" fill="rgba(255,255,255,0.7)"/>
</svg>
